HIERARCHY
ROOT Pelvis
{
	OFFSET 0.000000 0.000000 0.000000
	CHANNELS 6 Xposition Yposition Zposition Xrotation Yrotation Zrotation
	JOINT LeftUpLeg_virtual
	{
		OFFSET 0.000000 0.000000 0.000000
		CHANNELS 3 Xrotation Yrotation Zrotation
		JOINT LeftUpLeg
		{
			OFFSET 18.735201 -5.666702 -4.541200
			CHANNELS 3 Xrotation Yrotation Zrotation
			JOINT LeftLeg
			{
				OFFSET -0.021200 -31.938179 0.493100
				CHANNELS 3 Xrotation Yrotation Zrotation
				JOINT LeftFoot
				{
					OFFSET 0.021200 -31.938179 -4.336299
					CHANNELS 3 Xrotation Yrotation Zrotation
					JOINT LeftToeBase
					{
						OFFSET 0.943001 -26.722000 15.023500
						CHANNELS 3 Xrotation Yrotation Zrotation
						End Site
						{
							OFFSET 0 0 0
						}
					}
				}
			}
		}
	}
	JOINT RightUpLeg_virtual
	{
		OFFSET 0.000000 0.000000 0.000000
		CHANNELS 3 Xrotation Yrotation Zrotation
		JOINT RightUpLeg
		{
			OFFSET -18.735201 -5.666702 -4.541200
			CHANNELS 3 Xrotation Yrotation Zrotation
			JOINT RightLeg
			{
				OFFSET 0.018946 -31.938133 0.493100
				CHANNELS 3 Xrotation Yrotation Zrotation
				JOINT RightFoot
				{
					OFFSET -0.018946 -31.938126 -4.336299
					CHANNELS 3 Xrotation Yrotation Zrotation
					JOINT RightToeBase
					{
						OFFSET -0.943001 -26.722004 15.023500
						CHANNELS 3 Xrotation Yrotation Zrotation
						End Site
						{
							OFFSET 0 0 0
						}
					}
				}
			}
		}
	}
	JOINT Hips_virtual
	{
		OFFSET 0.000000 0.000000 0.000000
		CHANNELS 3 Xrotation Yrotation Zrotation
		JOINT Hips
		{
			OFFSET -0.000000 -0.000000 -0.000000
			CHANNELS 3 Xrotation Yrotation Zrotation
			JOINT Spine
			{
				OFFSET 0.000000 10.199997 -0.299500
				CHANNELS 3 Xrotation Yrotation Zrotation
				JOINT Spine1
				{
					OFFSET 0.000000 11.900002 -1.516600
					CHANNELS 3 Xrotation Yrotation Zrotation
					JOINT Spine2
					{
						OFFSET 0.000000 13.600006 -2.842500
						CHANNELS 3 Xrotation Yrotation Zrotation
						JOINT Neck_virtual
						{
							OFFSET 0.000000 0.000000 0.000000
							CHANNELS 3 Xrotation Yrotation Zrotation
							JOINT Neck
							{
								OFFSET 0.000000 9.624100 -2.890100
								CHANNELS 3 Xrotation Yrotation Zrotation
								JOINT Head
								{
									OFFSET 0.000000 14.068802 -1.351900
									CHANNELS 3 Xrotation Yrotation Zrotation
									End Site
									{
										OFFSET 0 0 0
									}
								}
							}
						}
						JOINT LeftShoulder_virtual
						{
							OFFSET 0.000000 0.000000 0.000000
							CHANNELS 3 Xrotation Yrotation Zrotation
							JOINT LeftShoulder
							{
								OFFSET 15.263000 10.923401 -0.547700
								CHANNELS 3 Xrotation Yrotation Zrotation
								JOINT LeftArm
								{
									OFFSET 25.438599 -2.830597 -13.032500
									CHANNELS 3 Xrotation Yrotation Zrotation
									JOINT LeftForeArm
									{
										OFFSET 29.960503 0.000000 0.000000
										CHANNELS 3 Xrotation Yrotation Zrotation
										JOINT LeftHand
										{
											OFFSET 27.849251 0.000000 0.000000
											CHANNELS 3 Xrotation Yrotation Zrotation
											End Site
											{
												OFFSET 0 0 0
											}
										}
									}
								}
							}
						}
						JOINT RightShoulder_virtual
						{
							OFFSET 0.000000 0.000000 0.000000
							CHANNELS 3 Xrotation Yrotation Zrotation
							JOINT RightShoulder
							{
								OFFSET -15.263000 10.923401 -0.547700
								CHANNELS 3 Xrotation Yrotation Zrotation
								JOINT RightArm
								{
									OFFSET -25.438599 -2.830597 -13.032500
									CHANNELS 3 Xrotation Yrotation Zrotation
									JOINT RightForeArm
									{
										OFFSET -29.960503 0.000000 0.000000
										CHANNELS 3 Xrotation Yrotation Zrotation
										JOINT RightHand
										{
											OFFSET -27.849251 0.000000 0.000000
											CHANNELS 3 Xrotation Yrotation Zrotation
											End Site
											{
												OFFSET 0 0 0
											}
										}
									}
								}
							}
						}
					}
				}
			}
		}
	}
}
MOTION
Frames: 13
Frame Time: 0.03333333
3.799194 80.258499 2.138475 0.000000 0.000000 0.000000 10.506112 67.130309 -12.185367 -18.019642 -2.236018 25.266495 57.065472 -7.493082 10.470924 -38.490548 7.338100 -17.765576 0.000000 0.000000 0.000000 10.506112 67.130309 -12.185367 -39.052693 10.976000 -19.595970 50.213167 10.193975 -6.621960 -17.125535 0.088518 25.683431 0.000000 0.000000 0.000000 10.506112 67.130309 -12.185367 0.000000 0.000002 0.000000 1.867864 -1.811654 0.508899 2.147804 -0.574861 -0.033124 0.000000 0.000000 0.000000 2.136799 -0.620496 -0.146678 -1.777541 -4.150047 0.170112 0.000000 0.000000 0.000000 2.136799 -0.620496 -0.146678 1.127383 -10.640392 -5.486605 -1.802084 -47.065444 -47.163167 179.999991 -73.678084 179.999991 0.000000 0.000000 0.000000 2.136799 -0.620496 -0.146678 0.469307 -2.168346 7.105749 -29.988372 -15.740002 41.708396 -179.999855 70.652802 179.999855 0.000000 0.000000 0.000000 
4.054844 81.712090 2.149626 0.000000 0.000000 0.000000 9.031643 65.414156 -10.494435 -16.666317 -0.015654 24.492790 54.155252 -7.319044 10.805132 -34.911310 6.992175 -18.117290 0.000000 0.000000 0.000000 9.031643 65.414156 -10.494435 -37.920626 10.002482 -19.880142 44.593865 10.061679 -6.702480 -12.742011 3.548812 27.102768 0.000000 0.000000 0.000000 9.031643 65.414156 -10.494435 0.000000 0.000001 0.000000 1.926200 -2.102244 0.319652 2.196508 -0.669197 -0.093633 0.000000 0.000000 0.000000 2.178840 -0.721575 -0.214627 -1.673734 -4.031251 0.240173 0.000000 0.000000 0.000000 2.178840 -0.721575 -0.214627 1.159397 -10.584913 -4.968927 -3.440715 -46.440485 -48.700519 -179.999786 -72.977709 -179.999800 0.000000 0.000000 0.000000 2.178840 -0.721575 -0.214627 0.472922 -1.987586 7.167159 -29.704810 -14.960001 41.837784 179.999677 69.760356 -179.999718 0.000000 0.000000 0.000000 
4.352537 83.321808 2.170115 0.000000 0.000000 0.000000 7.828027 63.414809 -9.018694 -15.570099 2.125118 23.593316 51.274107 -6.951973 10.948315 -30.352746 6.435129 -18.372758 0.000000 0.000000 0.000000 7.828027 63.414809 -9.018694 -36.523555 8.800108 -19.941586 38.074773 9.917372 -6.814501 -7.718528 7.126581 28.012124 0.000000 0.000000 0.000000 7.828027 63.414809 -9.018694 0.000000 0.000000 0.000000 1.865658 -2.381639 0.046648 2.147878 -0.743391 -0.181096 0.000000 0.000000 0.000000 2.123234 -0.800164 -0.306782 -1.526906 -3.897256 0.334237 0.000000 0.000000 0.000000 2.123234 -0.800164 -0.306782 1.197100 -10.412337 -4.302577 -5.193334 -45.854256 -50.234129 179.999868 -72.243983 179.999855 0.000000 0.000000 0.000000 2.123234 -0.800164 -0.306782 0.488558 -1.683400 7.375538 -29.457206 -13.864248 41.538192 -179.999950 68.998352 179.999950 0.000000 0.000000 0.000000 
4.811980 85.365349 2.230452 0.000000 0.000000 0.000000 7.023587 60.677208 -7.801897 -14.993848 4.268491 22.586483 48.222809 -6.232272 10.466179 -23.390096 5.345392 -18.487804 0.000000 0.000000 0.000000 7.023587 60.677208 -7.801897 -34.719586 7.067600 -19.056270 29.438665 9.601892 -7.750517 -1.186800 11.506459 28.190274 0.000000 0.000000 0.000000 7.023587 60.677208 -7.801897 0.000000 0.000000 0.000000 1.445641 -2.642980 -0.450106 1.806340 -0.774960 -0.347969 0.000000 0.000000 0.000000 1.773440 -0.829132 -0.471257 -1.239802 -3.720667 0.504909 0.000000 0.000000 0.000000 1.773440 -0.829132 -0.471257 1.239728 -9.854048 -3.184281 -7.337286 -45.581438 -51.880338 -179.999855 -71.481597 -179.999855 0.000000 0.000000 0.000000 1.773440 -0.829132 -0.471257 0.528483 -1.104086 8.063767 -29.166509 -11.793683 40.000282 -179.999964 68.632910 179.999964 0.000000 0.000000 0.000000 
5.235126 87.456635 2.236452 0.000000 0.000000 0.000000 6.476744 57.511040 -6.712651 -15.392197 5.725971 21.429860 45.705877 -5.059186 9.727602 -14.110455 3.791657 -18.497498 0.000000 0.000000 0.000000 6.476744 57.511040 -6.712651 -34.197466 5.920072 -18.366095 21.086278 9.743080 -6.750023 9.686970 15.929791 25.864991 0.000000 0.000000 0.000000 6.476744 57.511040 -6.712651 0.000000 0.000001 0.000000 0.916058 -2.859674 -1.043279 1.369297 -0.750833 -0.544706 0.000000 0.000000 0.000000 1.328519 -0.799762 -0.660570 -0.931444 -3.524904 0.691685 0.000000 0.000000 0.000000 1.328519 -0.799762 -0.660570 1.264991 -9.251290 -1.937964 -9.747284 -45.080977 -53.432887 -179.999950 -70.543150 -179.999964 0.000000 0.000000 0.000000 1.328519 -0.799762 -0.660570 0.565214 -0.209086 8.822584 -28.956833 -9.525905 37.940540 179.999882 68.387160 -179.999896 0.000000 0.000000 0.000000 
5.484409 89.290405 2.167593 0.000000 0.000000 0.000000 6.147736 53.989596 -5.464352 -16.110630 6.406381 19.649047 43.095287 -2.682889 8.789443 -3.117299 1.940792 -17.842013 0.000000 0.000000 0.000000 6.147736 53.989596 -5.464352 -33.385780 4.665168 -17.922833 12.717120 10.412745 -5.100230 21.661122 16.821784 22.025514 0.000000 0.000000 0.000000 6.147736 53.989596 -5.464352 0.000000 0.000000 0.000000 0.379659 -3.031263 -1.908431 0.914910 -0.628418 -0.788937 0.000000 0.000000 0.000000 0.866380 -0.672005 -0.890111 -0.667434 -3.319882 0.865352 0.000000 0.000000 0.000000 0.866380 -0.672005 -0.890111 1.300960 -8.970258 -0.631254 -12.531132 -43.686361 -54.856774 -179.999868 -69.087766 -179.999868 0.000000 0.000000 0.000000 0.866380 -0.672005 -0.890111 0.594282 1.293012 9.366185 -29.095233 -7.715564 35.699234 -179.999882 68.025460 179.999882 0.000000 0.000000 0.000000 
5.623796 91.190018 1.904654 0.000000 0.000000 0.000000 5.833488 50.325479 -4.479129 -16.513582 6.776003 17.809136 38.937891 -0.578648 7.459593 9.760450 -0.119259 -15.691149 0.000000 0.000000 0.000000 5.833488 50.325479 -4.479129 -34.727024 4.061142 -17.579911 13.101515 10.467921 -4.050262 23.831418 13.784409 19.305769 0.000000 0.000000 0.000000 5.833488 50.325479 -4.479129 0.000000 0.000001 0.000000 0.034541 -3.050310 -2.344581 0.605335 -0.473781 -0.931584 0.000000 0.000000 0.000000 0.553922 -0.512512 -1.019412 -0.513794 -3.112221 0.979779 0.000000 0.000000 0.000000 0.553922 -0.512512 -1.019412 1.307745 -8.658849 0.291259 -14.937094 -42.074624 -55.476886 -179.999896 -67.700138 -179.999882 0.000000 0.000000 0.000000 0.553922 -0.512512 -1.019412 0.601172 2.797503 9.668298 -29.462359 -5.853201 33.684420 179.999991 67.689873 -179.999991 0.000000 0.000000 0.000000 
5.674766 93.592941 1.257120 0.000000 0.000000 0.000000 5.414258 46.718525 -4.410069 -15.701999 6.944010 16.033584 31.625658 0.335558 5.850308 24.449466 -1.650054 -11.256267 0.000000 0.000000 0.000000 5.414258 46.718525 -4.410069 -35.266951 2.349578 -16.968492 15.936076 10.657153 -2.868634 21.066313 7.663299 16.942090 0.000000 0.000000 0.000000 5.414258 46.718525 -4.410069 0.000000 -0.000001 0.000000 0.182446 -2.765151 -1.370732 0.677078 -0.359047 -0.760396 0.000000 0.000000 0.000000 0.634978 -0.394217 -0.845322 -0.612174 -2.908051 0.953034 0.000000 0.000000 0.000000 0.634978 -0.394217 -0.845322 1.237537 -8.029394 0.156059 -16.251317 -40.835392 -54.427349 -179.999909 -66.891123 -179.999923 0.000000 0.000000 0.000000 0.634978 -0.394217 -0.845322 0.600731 3.760729 9.460536 -30.115523 -3.619601 32.551445 179.999909 67.373061 -179.999937 0.000000 0.000000 0.000000 
5.681962 95.938400 0.561295 0.000000 0.000000 0.000000 4.802694 43.312364 -4.559588 -17.448224 5.860223 15.062695 33.137373 2.165003 5.507487 28.863546 -1.744328 -9.244520 0.000000 0.000000 0.000000 4.802694 43.312364 -4.559588 -35.183991 0.313886 -16.358122 19.866461 10.527468 -1.693733 16.598234 1.832960 14.659997 0.000000 0.000000 0.000000 4.802694 43.312364 -4.559588 0.000000 0.000001 0.000000 0.606662 -2.342363 -0.004389 0.985247 -0.223879 -0.482493 0.000000 0.000000 0.000000 0.956667 -0.257982 -0.571311 -0.805568 -2.717502 0.858445 0.000000 0.000000 0.000000 0.956667 -0.257982 -0.571311 1.144504 -7.246874 -0.418777 -17.263576 -39.941242 -52.918725 -179.999923 -66.541328 -179.999909 0.000000 0.000000 0.000000 0.956667 -0.257982 -0.571311 0.608124 4.290605 9.147269 -30.800704 -1.171631 31.921661 -179.999923 67.287663 179.999923 0.000000 0.000000 0.000000 
5.585424 97.996262 0.109371 0.000000 0.000000 0.000000 3.784240 40.408765 -4.274787 -20.369595 4.769840 14.363463 38.026890 1.936612 5.058282 29.731229 -1.592952 -7.991605 0.000000 0.000000 0.000000 3.784240 40.408765 -4.274787 -34.679886 -1.395172 -16.009320 24.771192 8.902555 -0.955257 12.020067 0.218965 12.489142 0.000000 0.000000 0.000000 3.784240 40.408765 -4.274787 0.000000 -0.000001 0.000000 1.251224 -1.887273 0.888252 1.522110 -0.029877 -0.214675 0.000000 0.000000 0.000000 1.506044 -0.068332 -0.316205 -1.014678 -2.556993 0.732752 0.000000 0.000000 0.000000 1.506044 -0.068332 -0.316205 1.038703 -6.295066 -1.143580 -18.403632 -39.611832 -51.670531 -179.999923 -66.788923 -179.999923 0.000000 0.000000 0.000000 1.506044 -0.068332 -0.316205 0.607439 4.138776 9.089524 -31.306428 1.554756 31.603350 179.999882 67.644486 -179.999868 0.000000 0.000000 0.000000 
5.431362 99.827599 -0.221447 0.000000 0.000000 0.000000 2.656985 37.652511 -3.761669 -23.663610 3.884785 13.929356 43.933057 0.949267 4.544212 28.729514 -1.368885 -7.321849 0.000000 0.000000 0.000000 2.656985 37.652511 -3.761669 -33.945036 -2.581426 -15.790767 29.791530 7.434857 -0.385449 8.296580 0.085435 10.689009 0.000000 0.000000 0.000000 2.656985 37.652511 -3.761669 0.000000 -0.000001 0.000000 1.928075 -1.386609 1.425455 2.112716 0.216713 -0.015671 0.000000 0.000000 0.000000 2.107108 0.172502 -0.130755 -1.144468 -2.415259 0.610305 0.000000 0.000000 0.000000 2.107108 0.172502 -0.130755 0.961110 -5.437051 -1.714551 -19.505632 -39.400042 -50.928127 -179.999978 -67.372740 -179.999950 0.000000 0.000000 0.000000 2.107108 0.172502 -0.130755 0.604683 3.830620 9.160632 -31.577713 4.135912 31.608545 -179.999841 68.440572 179.999827 0.000000 0.000000 0.000000 
5.217149 101.246330 -0.435141 0.000000 0.000000 0.000000 1.530544 34.776526 -2.875916 -26.453116 3.605994 13.862957 48.814314 0.000656 3.900571 27.094995 -1.222042 -7.222126 0.000000 0.000000 0.000000 1.530544 34.776526 -2.875916 -33.386842 -2.673536 -15.637006 34.049319 8.057047 -0.167111 7.472049 -0.045903 9.966102 0.000000 0.000000 0.000000 1.530544 34.776526 -2.875916 0.000000 0.000000 0.000000 2.444896 -0.835018 1.364080 2.598135 0.551079 -0.013593 0.000000 0.000000 0.000000 2.597500 0.501772 -0.135780 -1.026573 -2.290820 0.553454 0.000000 0.000000 0.000000 2.597500 0.501772 -0.135780 0.924910 -5.038860 -1.562754 -20.745197 -38.805774 -51.462272 -179.999937 -68.116452 -179.999937 0.000000 0.000000 0.000000 2.597500 0.501772 -0.135780 0.604979 3.834694 9.383631 -31.444528 6.134414 31.803188 -179.999786 69.842414 179.999773 0.000000 0.000000 0.000000 
4.998176 102.407051 -0.590458 0.000000 0.000000 0.000000 0.648491 31.844569 -1.979165 -28.775635 3.615853 14.153349 52.343804 -0.724602 3.230415 25.008536 -1.109708 -7.549456 0.000000 0.000000 0.000000 0.648491 31.844569 -1.979165 -32.921163 -2.233764 -15.545867 37.803827 9.171797 -0.345418 7.830632 0.042291 9.871929 0.000000 0.000000 0.000000 0.648491 31.844569 -1.979165 0.000000 0.000001 0.000000 2.766672 -0.307102 1.065793 2.922565 0.887156 -0.117087 0.000000 0.000000 0.000000 2.923313 0.836406 -0.239898 -0.799777 -2.166948 0.518805 0.000000 0.000000 0.000000 2.923313 0.836406 -0.239898 0.897474 -4.782566 -1.205534 -21.508360 -37.974383 -52.397851 -179.999841 -68.903720 -179.999841 0.000000 0.000000 0.000000 2.923313 0.836406 -0.239898 0.607270 4.073709 9.670785 -31.001651 7.695771 32.288066 179.999814 71.552044 -179.999827 0.000000 0.000000 0.000000 
